<?xml version="1.0" encoding="utf-8"?>
<!-- Generator: Adobe Illustrator 24.2.3, SVG Export Plug-In . SVG Version: 6.00 Build 0)  -->
<svg version="1.1" id="arrow-right" xmlns="http://www.w3.org/2000/svg" xmlns:xlink="http://www.w3.org/1999/xlink" x="0px"
	 y="0px" viewBox="0 0 29 29" style="enable-background:new 0 0 29 29;" xml:space="preserve">
<style type="text/css">
	.st0{fill:#0D70AA;}
	.st1{clip-path:url(#SVGID_2_);}
</style>
<g id="Group_10" transform="translate(3.625 6.042)">
	<path id="Combined_Shape-2" class="st0" d="M12.4,16.6c-0.5-0.5-0.5-1.2,0-1.7l5.2-5.2H1.2C0.5,9.7,0,9.1,0,8.5s0.5-1.2,1.2-1.2
		c0,0,0,0,0,0h16.4l-5.2-5.2c-0.5-0.5-0.5-1.2,0-1.7c0.5-0.5,1.2-0.5,1.7,0l7.3,7.2c0.1,0.1,0.2,0.2,0.2,0.3l0,0l0,0v0l0,0l0,0v0
		l0,0l0,0c0.1,0.3,0.1,0.7,0,1v0l0,0l0,0l0,0l0,0l0,0l0,0v0l0,0l0,0l0,0l0,0l0,0l0,0l0,0l0,0l0,0v0l0,0l0,0l0,0l0,0l0,0l0,0l0,0
		l0,0.1l-7.2,7.2C13.7,17,12.9,17,12.4,16.6L12.4,16.6z"/>
	<g>
		<defs>
			<path id="SVGID_1_" d="M12.4,16.6c-0.5-0.5-0.5-1.2,0-1.7l5.2-5.2H1.2C0.5,9.7,0,9.1,0,8.5s0.5-1.2,1.2-1.2c0,0,0,0,0,0h16.4
				l-5.2-5.2c-0.5-0.5-0.5-1.2,0-1.7c0.5-0.5,1.2-0.5,1.7,0l7.3,7.2c0.1,0.1,0.2,0.2,0.2,0.3l0,0l0,0v0l0,0l0,0v0l0,0l0,0
				c0.1,0.3,0.1,0.7,0,1v0l0,0l0,0l0,0l0,0l0,0l0,0v0l0,0l0,0l0,0l0,0l0,0l0,0l0,0l0,0l0,0v0l0,0l0,0l0,0l0,0l0,0l0,0l0,0l0,0.1
				l-7.2,7.2C13.7,17,12.9,17,12.4,16.6L12.4,16.6z"/>
		</defs>
		<use xlink:href="#SVGID_1_"  style="overflow:visible;fill:#0D70AA;"/>
		<clipPath id="SVGID_2_">
			<use xlink:href="#SVGID_1_"  style="overflow:visible;"/>
		</clipPath>
		<g id="Mask_Group_10" class="st1">
			<g id="_Color" transform="translate(-3.625 -6.042)">
				<rect id="Rectangle" class="st0" width="29" height="29"/>
			</g>
		</g>
	</g>
</g>
</svg>
